<svg xmlns="http://www.w3.org/2000/svg" viewBox="0 0 345.827 345.827"><path d="M18.742 30.756l-1.577.28c-.242 2.19-.716 4.38-.69 6.567.156 12.94 2.817 25.41 7.448 37.464 3.365 8.758 8.513 16.067 16.675 21.14 6.64 4.13 12.956 8.777 19.544 12.993 24.072 15.407 46.63 32.45 65.34 54.455 14.85 17.464 32.562 31.905 52.6 43.29 32.96 18.724 67.232 31.52 106.16 23.938 4.74-.923 9.36-.572 13.574 2.968 3.67 3.086 8.018 2.525 12.026-.295 1.434-1.01 3.46-2.52 4.754-2.156 6.742 1.893 10.22-2.448 13.862-6.598 2.34-2.665 3.07-5.402.202-8.348-2.214-2.274-2.58-4.623-.535-7.582.823-1.19.585-4.53-.414-5.32-4.526-3.59-9.265-7.063-14.374-9.72-5.144-2.674-10.29-1.872-14.57 2.605-3.15 3.297-6.815 4.17-11.358 2.57-4.412-1.553-6.444-4.503-6.81-8.837-.572-6.74-4.116-11.45-9.78-14.743-2.585-1.503-5.13-3.27-7.934-4.174-19.12-6.17-38.212-12.467-57.513-18.027-7.934-2.286-15.476-.63-20.776 6.954-2.72 3.892-6.97 5.2-11.54 3.81-3.777-1.148-7.62-2.476-10.995-4.466-12.042-7.1-23.915-14.486-35.814-21.824-11.55-7.124-22.536-14.773-29.004-27.406-2.827-5.52-8.46-7.634-14.087-9.567-6.415-2.204-13.204-3.955-18.938-7.392-20.588-12.338-35.31-29.583-41.872-53.15-.9-3.227-2.388-6.29-3.603-9.43zM159.19 146.47c.542-5.87 1.1-10.786 1.43-15.716.895-13.348 2.176-26.566 10.194-38.005 3.616-5.16 3.37-7.345-1.357-11.436-2.007-1.736-4.37-3.067-6.335-4.845-6.76-6.116-14.487-11.534-19.904-18.688-15.97-21.095-36.903-35.204-60.533-45.952-2.105-.958-4.456-1.375-6.693-2.043l-.68 1.108c1.35 1.8 2.445 3.88 4.084 5.36 11.1 10.014 22.167 20.077 33.534 29.784 12.51 10.683 23.417 22.642 31.567 37 4.966 8.75 6.804 18.085 4.342 27.886-2.122 8.442-4.842 16.732-7.356 25.29l17.706 10.253zm-9.873 51.545l-.68.555c2.674 5.675 5.02 11.536 8.092 16.988 6.85 12.16 13.536 24.466 21.23 36.09 21.57 32.58 47.976 60.814 78.628 85.057 4.332 3.427 8.33 3.414 10.982.136 2.53-3.123 1.73-7.415-2.043-10.41-38.98-30.913-70.452-68.126-94.04-111.97-.608-1.13-1.368-2.353-2.387-3.06-6.543-4.536-13.178-8.94-19.783-13.385zM291.02 239.9c-.28-.46-.557-.92-.834-1.382-5.725.75-11.46 1.438-17.165 2.322-.74.115-1.584 1.116-1.946 1.906-8.437 18.396-16.814 36.82-25.318 55.49l6.122 5.32 39.14-63.657zM87.105 35.48C74.382 47.535 61.99 59.27 49.313 71.28c3.93 3.45 7.52 6.598 11.427 10.028l32.405-40.633-6.04-5.192zm31.1 26.577L81.542 91.18l15.66 6.273 26.513-29.078c-1.81-2.073-3.432-3.935-5.51-6.318zM225.007 275.86l25.648-34.644c-4.295-.578-7.803-.655-11.065-1.59-3.946-1.134-5.586.55-7.157 3.8-3.318 6.86-7.006 13.543-10.51 20.315-3.38 6.53-3.363 6.54 3.085 12.12zM140.515 95.267l-30.432 20.082c3.99 3.302 7.506 6.214 11.297 9.353 5.36-4.867 10.115-9.743 15.45-13.87 5.254-4.062 5.634-8.842 3.685-15.565zm73.088 137.545l-11.388-4.46c-8.31 11.986-7.65 9.302-.547 17.95l11.935-13.49z" fill="#FFF"/><path d="M18.742 30.756c1.215 3.14 2.704 6.202 3.602 9.43 6.562 23.566 21.284 40.81 41.872 53.15 5.734 3.436 12.523 5.186 18.938 7.39 5.627 1.935 11.26 4.048 14.087 9.568 6.47 12.633 17.454 20.282 29.005 27.406 11.9 7.34 23.773 14.724 35.813 21.824 3.375 1.99 7.22 3.318 10.994 4.466 4.57 1.39 8.82.08 11.54-3.81 5.3-7.584 12.843-9.24 20.778-6.954 19.3 5.56 38.392 11.856 57.513 18.027 2.803.905 5.348 2.67 7.934 4.174 5.664 3.294 9.208 8.002 9.78 14.743.366 4.334 2.398 7.284 6.81 8.838 4.542 1.6 8.208.726 11.36-2.57 4.277-4.478 9.425-5.28 14.568-2.605 5.11 2.657 9.848 6.13 14.375 9.718 1 .792 1.237 4.13.414 5.322-2.046 2.96-1.68 5.308.535 7.582 2.867 2.946 2.136 5.683-.203 8.348-3.643 4.15-7.12 8.49-13.862 6.597-1.294-.364-3.32 1.147-4.754 2.155-4.007 2.82-8.354 3.38-12.025.296-4.214-3.54-8.833-3.89-13.574-2.967-38.927 7.583-73.2-5.214-106.16-23.94-20.037-11.383-37.75-25.824-52.598-43.288-18.71-22.006-41.27-39.05-65.34-54.455-6.59-4.216-12.904-8.864-19.545-12.992-8.163-5.074-13.31-12.383-16.675-21.14-4.63-12.056-7.292-24.524-7.447-37.465-.026-2.186.447-4.38.69-6.568l1.577-.28z"/><path d="M159.19 146.47c-6.558-3.8-12.28-7.112-17.706-10.255 2.514-8.557 5.235-16.847 7.355-25.29 2.46-9.8.624-19.134-4.343-27.884-8.15-14.358-19.056-26.317-31.567-37-11.367-9.71-22.434-19.77-33.534-29.786-1.64-1.48-2.736-3.558-4.083-5.36l.68-1.107c2.236.668 4.587 1.086 6.692 2.043 23.63 10.75 44.56 24.857 60.533 45.952 5.416 7.154 13.145 12.57 19.904 18.687 1.964 1.776 4.328 3.107 6.335 4.844 4.728 4.09 4.973 6.276 1.357 11.435-8.018 11.438-9.3 24.656-10.194 38.004-.33 4.93-.888 9.845-1.43 15.715zM149.317 198.015c6.605 4.446 13.24 8.85 19.783 13.385 1.018.706 1.778 1.93 2.387 3.06 23.588 43.843 55.06 81.056 94.04 111.97 3.774 2.993 4.572 7.285 2.043 10.41-2.653 3.278-6.65 3.29-10.982-.136-30.652-24.243-57.057-52.475-78.627-85.058-7.694-11.623-14.38-23.93-21.23-36.09-3.073-5.45-5.418-11.312-8.094-16.987l.68-.555zM291.02 239.9c-12.93 21.03-25.862 42.058-39.143 63.658l-6.122-5.32c8.504-18.672 16.88-37.095 25.318-55.49.362-.79 1.206-1.792 1.947-1.907 5.705-.883 11.44-1.572 17.165-2.32.28.46.556.92.834 1.38z"/><path d="M87.106 35.48l6.04 5.193L60.74 81.306 49.315 71.278 87.106 35.48zM118.205 62.057l5.51 6.318-26.512 29.078-15.66-6.273 36.662-29.123zM225.008 275.86c-6.45-5.58-6.466-5.59-3.086-12.12 3.505-6.77 7.193-13.453 10.51-20.315 1.572-3.25 3.212-4.933 7.16-3.8 3.26.936 6.77 1.013 11.064 1.59l-25.648 34.644zM140.515 95.268c1.95 6.723 1.57 11.503-3.685 15.566-5.335 4.126-10.09 9.003-15.45 13.87-3.79-3.14-7.31-6.05-11.297-9.353 10.413-6.87 20.182-13.318 30.432-20.082zM213.603 232.813l-11.936 13.49c-7.102-8.648-7.762-5.964.547-17.95l11.39 4.46z"/></svg>