<svg id="Layer_1" xmlns="http://www.w3.org/2000/svg" viewBox="0 0 346 80"><style>.st0{fill:#3e3e3f}.st1{fill:#b1b2b6}.st2{fill:#96c350}.st3{fill:#eb5745}.st4{fill:#0c9c9e}.st5{fill:#afb872}.st6{fill:#2badde}.st7{fill:#ec895d}.st8{fill:#03a8a1}.st9{fill:#74ffff}.st10{fill:#01ffff}.st11{fill:#8fffaa}.st12{fill:#69a15a}.st13{fill:#ffffd8}.st14{fill:#48484a}.st15{fill:#ffffb1}.st16{fill:#f3a728}.st17{fill:#4effff}.st18{fill:#ed7035}.st19{fill:#00ffc1}.st20{fill:#ffff56}.st21{fill:#f6bf28}.st22{fill:#dfdc43}.st23{fill:#e84797}.st24{fill:#ffffb5}.st25{fill:#ffff65}.st26{fill:#f4b250}.st27{fill:#01a9a2}.st28{fill:#00ffd8}</style><switch><g><path class="st0" d="M110.9 74.6c-4.4 0-8.8-1.2-12.6-3.4l2.4-4.9c3.4 2 6.5 3.2 10.4 3.2 4.7 0 7.5-2.3 7.5-6.1 0-2.8-1.8-4.6-5.7-5.7l-4.1-1.2c-3.5-1-6-2.4-7.4-4.6-1.1-1.6-1.6-3.4-1.6-5.6 0-6.8 5.3-11.4 13-11.4 4.4 0 8.8 1.3 12.1 3.7l-2.9 4.5c-3.5-2.1-6-2.9-9-2.9-3.8 0-6.3 2.1-6.3 5.2 0 2.4 1.3 3.6 5.1 4.7l4.5 1.3c5.5 1.6 9.4 5.2 9.4 10.9.2 6.3-5 12.3-14.8 12.3zM140.3 74.6c-7.6 0-11.9-5.4-11.9-14.4 0-10.2 6.1-15.1 12.4-15.1 3 0 5.3.7 7.8 3l-3 4c-1.7-1.5-3.1-2.2-4.7-2.2-1.9 0-3.5 1-4.4 2.8-.8 1.7-1.2 4.3-1.2 7.8 0 3.8.6 6.3 1.9 7.6.9 1 2.2 1.6 3.7 1.6 1.9 0 3.8-.9 5.7-2.8l2.9 3.7c-2.8 2.8-5.4 4-9.2 4zM155.1 41.6c-2.2 0-3.9-1.8-3.9-4 0-2.3 1.8-4.1 4-4.1s4 1.8 4 4.1c0 2.2-1.8 4-4.1 4zm-3 32.2V46.2l6.2-1.1v28.7h-6.2zM169.4 61.5v.4c0 3.9 1.4 8 6.9 8 2.6 0 4.9-.9 7-2.8l2.4 3.7c-2.9 2.5-6.3 3.7-10.1 3.7-7.9 0-12.9-5.7-12.9-14.7 0-4.9 1.1-8.2 3.5-11 2.3-2.6 5-3.8 8.6-3.8 2.8 0 5.3.7 7.7 2.9s3.7 5.7 3.7 12.2v1.3h-16.8v.1zm5.3-11.8c-3.4 0-5.3 2.7-5.3 7.3h10.4c0-4.6-2-7.3-5.1-7.3zM205.3 73.8V55.2c0-3.8-.9-4.9-3.2-4.9-1.8 0-4.3 1.3-6.2 3.2v20.3h-6V53.2c0-2.9-.3-4.7-1.1-6.7l5.5-1.6c.7 1.3 1 2.5 1 4 3-2.5 5.6-3.9 8.6-3.9 4.3 0 7.3 2.6 7.3 7.8v21h-5.9zM227.7 74.6c-7.6 0-11.9-5.4-11.9-14.4 0-10.2 6.1-15.1 12.4-15.1 3 0 5.3.7 7.8 3l-3 4c-1.7-1.5-3.1-2.2-4.7-2.2-1.9 0-3.5 1-4.4 2.8-.8 1.7-1.2 4.3-1.2 7.8 0 3.8.6 6.3 1.9 7.6.9 1 2.2 1.6 3.7 1.6 1.9 0 3.8-.9 5.7-2.8l2.9 3.7c-2.8 2.8-5.4 4-9.2 4zM244.2 61.5v.4c0 3.9 1.4 8 6.9 8 2.6 0 4.9-.9 7-2.8l2.4 3.7c-2.9 2.5-6.3 3.7-10.1 3.7-7.9 0-12.9-5.7-12.9-14.7 0-4.9 1.1-8.2 3.5-11 2.3-2.6 5-3.8 8.6-3.8 2.8 0 5.3.7 7.7 2.9 2.4 2.2 3.7 5.7 3.7 12.2v1.3h-16.8v.1zm5.4-11.8c-3.4 0-5.3 2.7-5.3 7.3h10.4c0-4.6-2-7.3-5.1-7.3zM293.6 73.8H274V35.5h6.5v33.1h14.2l-1.1 5.2zM315.8 75c-1.7-.7-3.2-2-3.8-3.8-2.3 2.5-4.7 3.4-7.7 3.4-6.4 0-9.3-3.5-9.3-8.4 0-6.5 4.9-9.8 13.9-9.8h1.9V55c0-3.2-.6-4.9-3.9-4.9-3.6 0-7.5 2.5-8.4 3.2l-2.7-4.4c4.2-2.7 7.7-3.8 11.9-3.8 4.4 0 7.3 1.6 8.5 4.7.5 1.2.5 2.7.4 6.9l-.1 8c-.1 3.8.3 5 2.4 6.5l-3.1 3.8zm-6.3-14.4c-6.1 0-7.9 1.8-7.9 5.3 0 2.7 1.4 4.3 3.9 4.3 1.9 0 3.8-1.2 5-2.9l.1-6.7h-1.1zM334.8 74.4c-2.8 0-5.1-1.1-6.8-3.2-.3 1.5-.4 1.9-.8 2.6h-5.6c.5-1.3.7-2.5.7-6.3V41.1c0-3.2-.2-5.2-.7-6.8l6.3-1.4c.3 2 .4 3.4.4 5.6V45c0 1.6-.1 2.5-.2 2.7l.2.1c1.9-1.9 4-2.7 6.7-2.7 6.7 0 10.9 5.5 10.9 14.2.1 9.1-4.6 15.1-11.1 15.1zm-1-24.1c-2.5 0-4.2 1.4-5.3 2.8v13.7c1.2 1.3 3 2.4 5.2 2.4 3.8 0 5.5-2.8 5.5-9.8-.1-5-1.1-9.1-5.4-9.1z"/><g><path class="st1" d="M115.8 25.1v-9.3c0-1.7-.2-2-1.2-2-.7 0-1.7.5-2.5 1.2v10.1h-3.5v-9.2c0-1.8-.2-2.2-1.3-2.2-.7 0-1.6.4-2.4 1.1v10.3h-3.6v-9.8c0-2-.1-2.9-.5-3.6l3.3-.9c.2.4.4.7.5 1.4 1-.9 2.2-1.4 3.4-1.4 1.2 0 2.1.4 2.9 1.2.2.2.4.4.6.7 1.3-1.3 2.5-1.8 4-1.8 1.1 0 2.2.3 2.8.9.8.7 1 1.5 1 3.4v10h-3.5v-.1zM133.5 23.4c-1.1 1.2-2.5 2-4.7 2-3.8 0-6.3-2.9-6.3-7.3s2.5-7.4 6.3-7.4c2 0 3.6.7 4.8 2.1 1.1 1.3 1.6 2.9 1.6 5.2.1 2.4-.5 4-1.7 5.4zm-3-9.3c-.4-.5-.9-.7-1.6-.7-.9 0-1.6.6-1.9 1.4-.2.7-.4 1.7-.4 3.1 0 1.6.2 2.8.5 3.6.3.8 1.2 1.2 1.9 1.2 1.6 0 2.3-1.4 2.3-4.8 0-1.9-.3-3.1-.8-3.8zM147.6 25.1h-10.4v-2.3l6.6-9.2h-6.1V11h10.5v2.5l-6.2 9h6.5l-.9 2.6zM153.1 9.4c-1.2 0-2.3-1-2.3-2.3s1-2.3 2.3-2.3c1.2 0 2.2 1 2.2 2.3.1 1.2-.9 2.3-2.2 2.3zm-1.9 15.7V11.2l3.7-.6V25h-3.7v.1zM162.5 25.4c-1.6 0-2.8-.7-3.3-1.9-.3-.7-.3-1.2-.3-3.2V9.8c0-1.8-.1-3-.2-4.2l3.8-.9c.1.8.2 1.7.2 3.7v11c0 2.4 0 2.8.2 3.1.1.2.4.4.7.4.1 0 .2 0 .4-.1l.6 2.2c-.5.3-1.3.4-2.1.4zM170.3 25.4c-1.6 0-2.8-.7-3.3-1.9-.3-.7-.3-1.2-.3-3.2V9.8c0-1.8-.1-3-.2-4.2l3.8-.9c.1.8.2 1.7.2 3.7v11c0 2.4 0 2.8.2 3.1.1.2.4.4.7.4.1 0 .2 0 .4-.1l.6 2.2c-.5.3-1.3.4-2.1.4zM184.1 25.8c-.9-.4-1.6-1-2-1.7-.3.3-.6.6-.9.7-.7.5-1.7.8-2.8.8-3.1 0-4.9-1.6-4.9-4.4 0-3.3 2.3-4.9 6.8-4.9h.8v-.6c0-1.6-.3-2.1-1.7-2.1-1.2 0-2.6.6-4.1 1.6l-1.6-2.6c.7-.5 1.3-.7 2.3-1.2 1.4-.6 2.6-.8 3.9-.8 2.4 0 4 .9 4.6 2.5.2.6.3 1 .2 2.5l-.1 4.7c0 1.5.1 2.2 1.3 3.1l-1.8 2.4zm-3.1-6.9c-2.6 0-3.4.5-3.4 2.2 0 1.1.7 1.8 1.6 1.8.7 0 1.4-.4 1.9-1l.1-3h-.2z"/></g><g><path class="st2" d="M56.9 60.4c-5.4 0-9.8 4.4-9.8 9.8s4.4 9.8 9.8 9.8 9.8-4.4 9.8-9.8v-9.8h-9.8z"/><path class="st3" d="M66.7 29.5c0 5.4 4.4 9.8 9.8 9.8s9.8-4.4 9.8-9.8-4.4-9.8-9.8-9.8h-9.8v9.8z"/><path class="st4" d="M17.6 15.5c-2.5 0-4.5-2-4.5-4.5s2-4.5 4.5-4.5 4.5 2 4.5 4.5v4.5h-4.5z"/><path class="st5" d="M22.1 68.9c0 2.5-2 4.5-4.5 4.5s-4.5-2-4.5-4.5 2-4.5 4.5-4.5h4.5v4.5z"/><path class="st6" d="M75.2 64.5c2.5 0 4.5 2 4.5 4.5s-2 4.5-4.5 4.5-4.5-2-4.5-4.5v-4.5h4.5z"/><path class="st7" d="M70.8 11.1c0-2.5 2-4.5 4.5-4.5s4.5 2 4.5 4.5-2 4.5-4.5 4.5h-4.5v-4.5z"/><path class="st8" d="M47.8 42.5v-.8h-.3.3-.3c-1.2 0-2.3-.3-3.3-.7.4 2.8-.6 5.8-2.8 7.9-.6.6-1.3 1-1.9 1.4l.1.1c4-.5 7.5-3.7 8.2-7.9z"/><path class="st9" d="M44.1 40.9c-.2-1.8-1-3.6-2.4-5.1-.3-.3-.7-.7-1-.9-.3.5-.7 1.1-1.2 1.6.9 2 2.6 3.5 4.6 4.4z"/><path class="st10" d="M44.1 40.9c-2-.9-3.7-2.5-4.6-4.5 0 0-.1.1-.1.2l-.1.1-.1.1c-3.6 3.5-3.8 9.2-.3 12.9l.5.5c.7-.4 1.3-.8 1.9-1.4 2.2-2.1 3.2-5 2.8-7.9z"/><path class="st11" d="M41.1 26.1c1.3 2.8 1.2 6.1-.5 8.8.4.3.7.6 1 .9 1.4 1.5 2.1 3.2 2.4 5.1 1 .4 2.1.7 3.3.7h.3v-.3c.1-2.5 1.2-4.8 2.9-6.4-1.7-3.4-1.2-7.6 1.6-10.5 0 0 .1 0 .1-.1-1.3-.7-2.7-1.2-4.2-1.2-2.7.1-5.1 1.2-6.9 3z"/><path class="st12" d="M50.6 35.1c1.6-1.6 3.9-2.5 6.3-2.5 0-3.4-1.8-6.4-4.6-8 0 0-.1 0-.1.1-2.7 2.8-3.3 7-1.6 10.4z"/><path class="st13" d="M47.7 41.4v.3c2.8.2 5.2 1.6 6.7 3.7.6-2.9-.1-6-2.3-8.3-.2-.3-.5-.5-.8-.7-.3-.4-.6-.9-.8-1.3-1.6 1.6-2.7 3.8-2.8 6.3z"/><path class="st12" d="M41.1 26.1c-1.5 1.6-2.5 3.7-2.6 6.1 0 .5 0 1 .1 1.5.7.3 1.4.7 2 1.2 1.7-2.6 1.9-6 .5-8.8z"/><path class="st14" d="M39.2 50.3h.2l-.1-.1-.1.1z"/><path class="st15" d="M38.4 50.3c-1.6-.1-3.1.3-4.4 1 1.8.2 3.6-.1 5.3-1H38.4z"/><path class="st16" d="M56.9 33.3c.1 4.5 3.4 8.2 7.8 8.9H66.1V42c.2-5.1-3.8-9.3-8.9-9.5h-.3v.8z"/><path class="st17" d="M38.6 33.7c.1 1 .4 1.9.8 2.8.5-.5.9-1 1.2-1.6-.6-.5-1.2-.9-2-1.2z"/><path class="st18" d="M37.4 19.6c.3 1.5 1.1 3 2.2 4.3l.2.2c.6.6 1 1.3 1.3 2.1 1.7-1.8 4.2-2.9 6.9-2.8 1.5.1 3 .5 4.2 1.2l.3-.3c1.4-1.3 2.3-3 2.7-4.8-4.7-.8-8.2-4.8-8.2-9.7 0-.5 0-.9.1-1.4-.5 0-1-.1-1.5 0 .1.5.1 1 .1 1.4.1 5-3.6 9.1-8.3 9.8z"/><path class="st19" d="M47.7 41.7v.8c-.6 4.2-4.1 7.4-8.4 7.7 3.5 3.1 8.9 3.1 12.4-.1 1.4-1.3 2.3-3 2.7-4.7-1.5-2.1-3.9-3.5-6.7-3.7z"/><path class="st20" d="M56.6 50.9h.1c5 .1 9.1-3.8 9.3-8.7H64.6c-4.4-.7-7.7-4.4-7.8-8.9v-.5-.2c-2.4 0-4.7.9-6.3 2.5.2.5.5.9.8 1.3.3.2.5.5.8.7 2.1 2.3 2.9 5.4 2.3 8.3 1.1 1.5 1.8 3.5 1.8 5.5h.4z"/><path class="st21" d="M51.8 50.1c-3.5 3.3-8.9 3.3-12.4.1h-.2c-1.6.8-3.5 1.2-5.3 1-2.9 1.5-4.9 4.4-5.1 7.9v1.3H36c3.8 0 7.1 2.2 8.7 5.3 1.5-1.6 2.4-3.7 2.5-6v-.3c.3-4.8 4.2-8.5 9-8.5 0-2.1-.7-4-1.8-5.5-.3 1.7-1.2 3.4-2.6 4.7z"/><path class="st6" d="M16.4 40.8c3.9 0 7.2 2.2 8.8 5.5 1.1.5 2.1 1.1 3 2l.1.1.1.1c1.5 1.6 3.5 2.5 5.5 2.8 1.3-.7 2.8-1 4.4-1h.8s.1 0 .1-.1c-.2-.2-.4-.3-.5-.5-3.4-3.7-3.3-9.4.3-12.9l.1-.1.1-.1s.1-.1.1-.2c-.4-.9-.7-1.8-.8-2.8-3.2-1.4-7.2-.8-9.9 1.7-.3.2-.5.5-.7.8-1.9 1.4-4.3 2-6.6 1.7-1.5.9-3.2 1.4-5 1.4-4.4 0-8.1-2.9-9.4-6.9-1.5.4-2.9 1.1-4.1 2.2-3.7 3.5-3.9 9.3-.4 13C3.6 48.7 5 49.6 6.5 50c.3-5.1 4.6-9.2 9.9-9.2z"/><path class="st22" d="M66.7 50.6c0-2.9 1.2-5.4 3.2-7.2-1.1-.6-2.4-1-3.8-1.1-.3 4.9-4.4 8.8-9.3 8.7h-.1H56.4v.2c-.1 5 3.8 9.2 8.9 9.4.7 0 1.4 0 2-.2h-.4v-9.8z"/><path class="st23" d="M37.7 68.6c-4.6-.2-8.3-3.7-8.8-8.2h-2.7v9.8c0 5.4 4.4 9.8 9.8 9.8s9.8-4.4 9.8-9.8c0-1.6-.4-3.1-1.1-4.5-1.7 1.9-4.2 3-7 2.9z"/><path class="st24" d="M36 60.4h-7.1c.5 4.5 4.2 8.1 8.8 8.2 2.7.1 5.2-1 7-2.9-1.6-3.2-4.9-5.3-8.7-5.3z"/><path class="st2" d="M36 19.7c.5 0 .9 0 1.4-.1-.7-3.1.2-6.4 2.7-8.7 1.6-1.5 3.6-2.3 5.6-2.4C45 3.7 40.9.1 36 .1c-5.4 0-9.8 4.4-9.8 9.8v9.8H36z"/><path class="st25" d="M37.4 19.6c4.8-.7 8.4-4.8 8.4-9.7 0-.5 0-1-.1-1.4-2 .1-4 .9-5.6 2.4-2.5 2.3-3.4 5.6-2.7 8.7zM55.3 19.5c.6-2.8-.1-5.9-2.3-8.2-1.6-1.7-3.7-2.7-5.8-2.9-.1.4-.1.9-.1 1.4 0 4.9 3.5 8.9 8.2 9.7z"/><path class="st26" d="M55.3 19.5c.5.1 1.1.1 1.6.1h9.8V9.8c0-5.4-4.4-9.8-9.8-9.8-5 0-9.1 3.7-9.7 8.4 2.2.2 4.3 1.2 5.8 2.9 2.2 2.3 2.9 5.4 2.3 8.2z"/><path class="st27" d="M76.5 40.8c-2.6 0-4.9 1-6.6 2.6 2.9 1.6 4.8 4.8 4.7 8.3-.1 4.4-3.3 7.9-7.5 8.7h9.4c5.4 0 9.8-4.4 9.8-9.8 0-5.5-4.4-9.8-9.8-9.8z"/><path class="st28" d="M74.6 51.7c.1-3.6-1.8-6.7-4.7-8.3-1.9 1.8-3.2 4.4-3.2 7.2v9.8h.4c4.1-.8 7.3-4.4 7.5-8.7z"/><path class="st26" d="M15.9 35c.1.1.2.3.3.4 1.5 1.4 3.3 2.2 5.2 2.5 2.9-1.7 4.8-4.8 4.8-8.4v-9.8h-9.8c-5.4 0-9.8 4.4-9.8 9.8 0 1 .2 2 .4 2.9 3.1-.8 6.5.1 8.9 2.6z"/><path class="st3" d="M25.2 46.3c-3.1-1.3-6.8-.8-9.5 1.6l-.3.1c-2.5 2.3-5.8 3-8.9 2.1v.5c0 5.4 4.4 9.8 9.8 9.8h9.8v-9.8c.1-1.6-.3-3-.9-4.3z"/><path class="st14" d="M47.4 41.7h.3-.3zM39.6 23.8c.1.1.1.2.2.2-.1 0-.1-.1-.2-.2zM47.3 59.5zM47.3 59.6zM47.3 59.6zM47.3 59.6zM47.3 59.6zM47.3 59.6zM47.3 59.6zM47.2 59.6h.1zM47.2 59.6h.1-.1zM47.2 59.6h.1-.1zM47.2 59.6h.1-.1zM47.2 59.6h.1-.1zM47.2 59.6h.1-.1zM47.2 59.6h.1-.1zM47.2 59.6h.1-.1zM47.2 59.6h.1-.1zM47.2 59.6h.1-.1zM47.2 59.6h.1-.1zM47.2 59.6h.1-.1zM47.2 59.6h.1-.1zM47.2 59.6h.1-.1zM47.2 59.6h.1-.1zM47.2 59.6h.1-.1zM47.2 59.6h.1-.1zM47.2 59.6h.1-.1zM47.2 59.6h.1-.1zM47.2 59.6h.1-.1zM47.2 59.6h.1-.1zM47.2 59.6h.1-.1zM47.2 59.6h.1-.1zM47.2 59.6h.1-.1zM47.2 59.6h.1-.1zM47.2 59.6h.1-.1zM47.2 59.6h.1-.1zM47.2 59.6h.1-.1zM47.2 59.6h.1-.1zM47.2 59.6h.1-.1zM47.2 59.6h.1-.1zM47.2 59.6h.1-.1zM47.2 59.6h.1-.1zM47.2 59.6h.1-.1zM47.2 59.6h.1-.1zM47.2 59.6h.1-.1zM47.2 59.6l.1.1v-.1h-.1zM47.2 59.6l.1.1-.1-.1zM47.2 59.6l.1.1-.1-.1zM47.2 59.6l.1.1-.1-.1zM47.2 59.6l.1.1-.1-.1zM47.2 59.6l.1.1-.1-.1zM47.2 59.6l.1.1-.1-.1zM47.2 59.6l.1.1-.1-.1z"/><path class="st14" d="M47.2 59.7h.1l-.1-.1zM47.2 59.7h.1-.1zM47.2 59.7h.1-.1zM47.2 59.7h.1-.1zM47.2 59.7h.1-.1zM47.2 59.7h.1-.1zM47.2 59.7h.1-.1zM47.2 59.7h.1-.1zM47.2 59.7h.1-.1zM47.2 59.7h.1-.1zM47.2 59.7h.1-.1zM47.2 59.7h.1-.1zM47.2 59.7h.1-.1zM47.2 59.7h.1-.1zM47.2 59.7h.1-.1zM47.2 59.7h.1-.1zM47.2 59.7h.1-.1zM47.2 59.7h.1-.1zM47.2 59.7h.1-.1zM47.2 59.7h.1-.1zM47.2 59.7h.1-.1zM47.2 59.7h.1-.1zM47.2 59.7h.1-.1zM47.2 59.7h.1-.1zM47.2 59.7h.1-.1zM47.2 59.7h.1-.1zM47.2 59.7h.1-.1zM47.2 59.7h.1-.1zM47.2 59.7h.1-.1zM47.2 59.7h.1-.1zM47.2 59.7h.1-.1zM47.2 59.7h.1-.1zM47.2 59.7h.1-.1zM47.2 59.7h.1-.1zM47.2 59.7h.1-.1zM47.2 59.7h.1-.1zM47.2 59.7h.1-.1zM47.2 59.7h.1-.1zM47.2 59.7h.1-.1zM47.2 59.7h.1-.1zM47.2 59.7h.1-.1zM47.2 59.7h.1-.1zM47.2 59.7h.1-.1zM47.2 59.7h.1-.1zM47.2 59.7h.1-.1zM47.2 59.7h.1-.1zM47.2 59.7h.1-.1zM47.2 59.7h.1-.1zM47.2 59.7h.1-.1zM47.2 59.7h.1-.1zM47.2 59.7h.1-.1zM47.2 59.7h.1-.1zM47.2 59.7h.1-.1z"/><path class="st14" d="M47.2 59.8c.1 0 .1 0 0 0 .1-.1.1-.1 0 0 0-.1 0-.1 0 0z"/></g></g></switch></svg>