<?xml version="1.0" encoding="iso-8859-1"?>
<!-- Generator: Adobe Illustrator 21.1.0, SVG Export Plug-In . SVG Version: 6.00 Build 0)  -->
<svg version="1.1" id="Layer_1" xmlns="http://www.w3.org/2000/svg" xmlns:xlink="http://www.w3.org/1999/xlink" x="0px" y="0px"
	 viewBox="0 0 616.952 301.916" style="enable-background:new 0 0 616.952 301.916;" xml:space="preserve">
<g>
	<path d="M284.106,168.689c0-15.366,0.055-30.732-0.017-46.097c-0.061-12.934,2.518-26.255-12.562-34.553
		c-6.901-3.797-5.508-11.32-0.767-18.04c27.905-39.551,105.153-35.673,127.067,6.898c8.862,17.216,8.307,34.912-3.747,50.765
		c-6.371,8.38-8.701,12.241,1.361,22.06c29.09,28.391,22.666,59.523-8.526,85.508c-13.196,10.993-30.261,16.989-48.784,15.706
		c-11.073-0.767-22.244-0.182-33.37-0.096c-14.688,0.114-21-7.39-20.811-21.748c0.265-20.131,0.067-40.268,0.067-60.402
		C284.047,168.689,284.076,168.689,284.106,168.689z M316.632,190.032c4.391,9.685-8.757,28.528,15.911,28.065
		c27.476-0.515,46.86-11.572,46.66-27.865c-0.208-16.982-19.75-29.094-46.104-29.31
		C309.673,160.731,319.754,178.524,316.632,190.032z M317.168,101.88c1.266,9.933-5.387,24.987,15.757,24.134
		c21.362-0.862,37.388-11.341,37.046-26.204c-0.313-13.619-14.478-23.667-33.74-23.934C321.03,75.666,317.226,80.684,317.168,101.88
		z"/>
	<path d="M183.743,136.924c0.502,42.838-14.809,78.703-49.063,104.871C92.771,273.812,18.713,256.387,4.242,195.616
		c-12.114-50.87,1.948-94.769,39.25-129.964c26.172-24.694,58.527-28.093,91.683-14.584c31.657,12.899,46.946,37.831,48.538,71.558
		C183.936,127.382,183.743,132.158,183.743,136.924z M150.98,137.075c0-3.695,0.096-7.394-0.016-11.085
		c-0.773-25.484-10.875-38.042-38.129-47.486c-16.709-5.79-43.267,1.514-54.521,16.098c-19.147,24.813-28.731,53.016-24.166,84.396
		c6.577,45.209,54.464,57.972,82.274,35.572C140.877,194.872,152.766,168.825,150.98,137.075z"/>
	<path d="M564.976,52.388c10.074,0,21.71,0.126,33.341-0.039c9.536-0.135,17.179,2.833,18.479,13.201
		c1.273,10.151-5.448,15.38-14.204,18.25c-15.403,5.049-31.377,3.865-47.209,3.948c-23.814,0.125-33.463,14.66-24.996,37.492
		c1.822,4.915,5.349,6.331,9.814,6.222c14.177-0.346,28.587,2.161,42.377-3.322c1.952-0.776,4.034-1.304,6.103-1.695
		c9.928-1.873,18.513,0.515,22.095,10.552c3.921,10.986-4.088,17.255-12.364,20.852c-12.159,5.285-25.367,6.895-38.758,6.909
		c-32.491,0.036-29.701-3.308-29.83,29.861c-0.053,13.749-0.002,27.499-0.093,41.248c-0.07,10.705-4.135,19.622-15.678,20.085
		c-11.866,0.476-16.366-9.081-16.853-19.162c-0.842-17.413-0.313-34.89-0.43-52.34c-0.067-9.981,0.986-20.061-4.84-29.243
		c-2.28-3.594-2.624-8.385-0.688-12.297c9.608-19.412,6.186-39.03,1.24-58.635c-4.337-17.192-1.019-23.132,15.716-28.049
		C526.374,50.887,545.025,53.983,564.976,52.388z"/>
	<path d="M469.572,145.39c0.003,36.478-0.047,72.956,0.033,109.434c0.024,11.158-0.621,23.137-14.903,23.329
		c-13.298,0.179-17.337-11.17-17.384-22.357c-0.309-74.01-0.344-148.024,0.04-222.033c0.057-11.062,4.349-22.546,17.731-21.826
		c12.447,0.67,14.6,11.446,14.547,22.434C469.458,71.376,469.568,108.383,469.572,145.39z"/>
	<path d="M244.37,146.131c-0.007,37.006-0.051,74.012,0.023,111.018c0.019,9.433-0.441,19.082-12.079,20.854
		c-11.429,1.74-15.089-7.152-18.221-16.037c-2.344-6.65-2.525-13.458-2.526-20.337c-0.006-66.082-0.015-132.164,0.01-198.246
		c0.003-6.846-0.381-13.736,3.708-19.921c4.154-6.283,8.267-13.492,17.066-11.292c8.704,2.177,12.054,9.242,12.015,18.185
		c-0.121,27.489-0.007,54.98,0.01,82.47C244.384,123.927,244.378,135.029,244.37,146.131z"/>
</g>
</svg>
