<svg xmlns="http://www.w3.org/2000/svg" viewBox="0 0 616.952 301.916"><path d="M284.106 168.689c0-15.366.055-30.732-.017-46.097-.061-12.934 2.518-26.255-12.562-34.553-6.901-3.797-5.508-11.32-.767-18.04 27.905-39.551 105.153-35.673 127.067 6.898 8.862 17.216 8.307 34.912-3.747 50.765-6.371 8.38-8.701 12.241 1.361 22.06 29.09 28.391 22.666 59.523-8.526 85.508-13.196 10.993-30.261 16.989-48.784 15.706-11.073-.767-22.244-.182-33.37-.096-14.688.114-21-7.39-20.811-21.748.265-20.131.067-40.268.067-60.402l.089-.001zm32.526 21.343c4.391 9.685-8.757 28.528 15.911 28.065 27.476-.515 46.86-11.572 46.66-27.865-.208-16.982-19.75-29.094-46.104-29.31-23.426-.191-13.345 17.602-16.467 29.11zm.536-88.152c1.266 9.933-5.387 24.987 15.757 24.134 21.362-.862 37.388-11.341 37.046-26.204-.313-13.619-14.478-23.667-33.74-23.934-15.201-.21-19.005 4.808-19.063 26.004zM183.743 136.924c.502 42.838-14.809 78.703-49.063 104.871-41.909 32.017-115.967 14.592-130.438-46.179-12.114-50.87 1.948-94.769 39.25-129.964 26.172-24.694 58.527-28.093 91.683-14.584 31.657 12.899 46.946 37.831 48.538 71.558.223 4.756.03 9.532.03 14.298zm-32.763.151c0-3.695.096-7.394-.016-11.085-.773-25.484-10.875-38.042-38.129-47.486-16.709-5.79-43.267 1.514-54.521 16.098-19.147 24.813-28.731 53.016-24.166 84.396 6.577 45.209 54.464 57.972 82.274 35.572 24.455-19.698 36.344-45.745 34.558-77.495zM564.976 52.388c10.074 0 21.71.126 33.341-.039 9.536-.135 17.179 2.833 18.479 13.201 1.273 10.151-5.448 15.38-14.204 18.25-15.403 5.049-31.377 3.865-47.209 3.948-23.814.125-33.463 14.66-24.996 37.492 1.822 4.915 5.349 6.331 9.814 6.222 14.177-.346 28.587 2.161 42.377-3.322 1.952-.776 4.034-1.304 6.103-1.695 9.928-1.873 18.513.515 22.095 10.552 3.921 10.986-4.088 17.255-12.364 20.852-12.159 5.285-25.367 6.895-38.758 6.909-32.491.036-29.701-3.308-29.83 29.861-.053 13.749-.002 27.499-.093 41.248-.07 10.705-4.135 19.622-15.678 20.085-11.866.476-16.366-9.081-16.853-19.162-.842-17.413-.313-34.89-.43-52.34-.067-9.981.986-20.061-4.84-29.243-2.28-3.594-2.624-8.385-.688-12.297 9.608-19.412 6.186-39.03 1.24-58.635-4.337-17.192-1.019-23.132 15.716-28.049 18.176-5.339 36.827-2.243 56.778-3.838zM469.572 145.39c.003 36.478-.047 72.956.033 109.434.024 11.158-.621 23.137-14.903 23.329-13.298.179-17.337-11.17-17.384-22.357-.309-74.01-.344-148.024.04-222.033.057-11.062 4.349-22.546 17.731-21.826 12.447.67 14.6 11.446 14.547 22.434-.178 37.005-.068 74.012-.064 111.019zM244.37 146.131c-.007 37.006-.051 74.012.023 111.018.019 9.433-.441 19.082-12.079 20.854-11.429 1.74-15.089-7.152-18.221-16.037-2.344-6.65-2.525-13.458-2.526-20.337-.006-66.082-.015-132.164.01-198.246.003-6.846-.381-13.736 3.708-19.921 4.154-6.283 8.267-13.492 17.066-11.292 8.704 2.177 12.054 9.242 12.015 18.185-.121 27.489-.007 54.98.01 82.47.008 11.102.002 22.204-.006 33.306z"/></svg>